<?xml version="1.0" standalone="no"?>
 <!DOCTYPE svg PUBLIC "-//W3C//DTD SVG 1.1//EN" 
 "http://www.w3.org/Graphics/SVG/1.1/DTD/svg11.dtd"> 
<svg
  xmlns:svg="http://www.w3.org/2000/svg"
  xmlns="http://www.w3.org/2000/svg"
  xmlns:xlink="http://www.w3.org/1999/xlink"
  version="1.1"
  width="29.700220cm" height="21.000720cm" viewBox="0 0 297002200 210007200">
<title>SVG Picture created as GSM_LCD_RTC-F_Silkscreen.svg date 2022/06/07 20:46:42 </title>
  <desc>Picture generated by PCBNEW </desc>
<g style="fill:#000000; fill-opacity:1.000000;stroke:#000000; stroke-opacity:1.000000;
stroke-linecap:round; stroke-linejoin:round;"
 transform="translate(0 0) scale(1 1)">
</g>
<g style="fill:#000000; fill-opacity:0.0; 
stroke:#000000; stroke-width:0.000000; stroke-opacity:1; 
stroke-linecap:round; stroke-linejoin:round;">
</g>
<g style="fill:#000000; fill-opacity:0.0; 
stroke:#000000; stroke-width:21200.000000; stroke-opacity:1; 
stroke-linecap:round; stroke-linejoin:round;">
</g>
<g style="fill:#000000; fill-opacity:0.0; 
stroke:#000000; stroke-width:150000.000000; stroke-opacity:1; 
stroke-linecap:round; stroke-linejoin:round;">
<rect x="177002200.000000" y="166007200.000000" width="108000000.000000" height="32000000.000000" rx="0.000000" />
</g>
<g style="fill:#000000; fill-opacity:0.0; 
stroke:#000000; stroke-width:21200.000000; stroke-opacity:1; 
stroke-linecap:round; stroke-linejoin:round;">
</g>
<g style="fill:#000000; fill-opacity:0.0; 
stroke:#000000; stroke-width:150000.000000; stroke-opacity:1; 
stroke-linecap:round; stroke-linejoin:round;">
<rect x="10000000.000000" y="10000000.000000" width="277002200.000000" height="190007200.000000" rx="0.000000" />
</g>
<g style="fill:#000000; fill-opacity:0.0; 
stroke:#000000; stroke-width:21200.000000; stroke-opacity:1; 
stroke-linecap:round; stroke-linejoin:round;">
</g>
<g style="fill:#000000; fill-opacity:0.0; 
stroke:#000000; stroke-width:150000.000000; stroke-opacity:1; 
stroke-linecap:round; stroke-linejoin:round;">
<rect x="12000000.000000" y="12000000.000000" width="273002200.000000" height="186007200.000000" rx="0.000000" />
</g>
<g style="fill:#000000; fill-opacity:0.0; 
stroke:#000000; stroke-width:21200.000000; stroke-opacity:1; 
stroke-linecap:round; stroke-linejoin:round;">
</g>
<g style="fill:#000000; fill-opacity:0.0; 
stroke:#000000; stroke-width:150000.000000; stroke-opacity:1; 
stroke-linecap:round; stroke-linejoin:round;">
<path d="M60000000 12000000
L60000000 10000000
" />
</g>
<g style="fill:#000000; fill-opacity:0.0; 
stroke:#000000; stroke-width:21200.000000; stroke-opacity:1; 
stroke-linecap:round; stroke-linejoin:round;">
</g>
<g style="fill:#000000; fill-opacity:0.0; 
stroke:#000000; stroke-width:150000.000000; stroke-opacity:1; 
stroke-linecap:round; stroke-linejoin:round;">
<path d="M110000000 12000000
L110000000 10000000
" />
</g>
<g style="fill:#000000; fill-opacity:0.0; 
stroke:#000000; stroke-width:21200.000000; stroke-opacity:1; 
stroke-linecap:round; stroke-linejoin:round;">
</g>
<g style="fill:#000000; fill-opacity:0.0; 
stroke:#000000; stroke-width:150000.000000; stroke-opacity:1; 
stroke-linecap:round; stroke-linejoin:round;">
<path d="M160000000 12000000
L160000000 10000000
" />
</g>
<g style="fill:#000000; fill-opacity:0.0; 
stroke:#000000; stroke-width:21200.000000; stroke-opacity:1; 
stroke-linecap:round; stroke-linejoin:round;">
</g>
<g style="fill:#000000; fill-opacity:0.0; 
stroke:#000000; stroke-width:150000.000000; stroke-opacity:1; 
stroke-linecap:round; stroke-linejoin:round;">
<path d="M210000000 12000000
L210000000 10000000
" />
</g>
<g style="fill:#000000; fill-opacity:0.0; 
stroke:#000000; stroke-width:21200.000000; stroke-opacity:1; 
stroke-linecap:round; stroke-linejoin:round;">
</g>
<g style="fill:#000000; fill-opacity:0.0; 
stroke:#000000; stroke-width:150000.000000; stroke-opacity:1; 
stroke-linecap:round; stroke-linejoin:round;">
<path d="M260000000 12000000
L260000000 10000000
" />
</g>
<g style="fill:#000000; fill-opacity:0.0; 
stroke:#000000; stroke-width:21200.000000; stroke-opacity:1; 
stroke-linecap:round; stroke-linejoin:round;">
</g>
<g style="fill:#000000; fill-opacity:0.0; 
stroke:#000000; stroke-width:150000.000000; stroke-opacity:1; 
stroke-linecap:round; stroke-linejoin:round;">
<text x="35000000.000000" y="11650000.000000"
textLength="1388095.000000" font-size="1733333.000000" lengthAdjust="spacingAndGlyphs"
text-anchor="start" opacity="0">1</text>
<g class="stroked-text"><desc>1</desc>
<path d="M36065476 11588095
L35322619 11588095
" />
<path d="M35694047 11588095
L35694047 10288095
L35570238 10473809
L35446428 10597619
L35322619 10659523
" />
</g></g>
<g style="fill:#000000; fill-opacity:0.0; 
stroke:#000000; stroke-width:21200.000000; stroke-opacity:1; 
stroke-linecap:round; stroke-linejoin:round;">
</g>
<g style="fill:#000000; fill-opacity:0.0; 
stroke:#000000; stroke-width:150000.000000; stroke-opacity:1; 
stroke-linecap:round; stroke-linejoin:round;">
<text x="85000000.000000" y="11650000.000000"
textLength="1388095.000000" font-size="1733333.000000" lengthAdjust="spacingAndGlyphs"
text-anchor="start" opacity="0">2</text>
<g class="stroked-text"><desc>2</desc>
<path d="M85322619 10411904
L85384523 10350000
L85508333 10288095
L85817857 10288095
L85941666 10350000
L86003571 10411904
L86065476 10535714
L86065476 10659523
L86003571 10845238
L85260714 11588095
L86065476 11588095
" />
</g></g>
<g style="fill:#000000; fill-opacity:0.0; 
stroke:#000000; stroke-width:21200.000000; stroke-opacity:1; 
stroke-linecap:round; stroke-linejoin:round;">
</g>
<g style="fill:#000000; fill-opacity:0.0; 
stroke:#000000; stroke-width:150000.000000; stroke-opacity:1; 
stroke-linecap:round; stroke-linejoin:round;">
<text x="135000000.000000" y="11650000.000000"
textLength="1388095.000000" font-size="1733333.000000" lengthAdjust="spacingAndGlyphs"
text-anchor="start" opacity="0">3</text>
<g class="stroked-text"><desc>3</desc>
<path d="M135260714 10288095
L136065476 10288095
L135632142 10783333
L135817857 10783333
L135941666 10845238
L136003571 10907142
L136065476 11030952
L136065476 11340476
L136003571 11464285
L135941666 11526190
L135817857 11588095
L135446428 11588095
L135322619 11526190
L135260714 11464285
" />
</g></g>
<g style="fill:#000000; fill-opacity:0.0; 
stroke:#000000; stroke-width:21200.000000; stroke-opacity:1; 
stroke-linecap:round; stroke-linejoin:round;">
</g>
<g style="fill:#000000; fill-opacity:0.0; 
stroke:#000000; stroke-width:150000.000000; stroke-opacity:1; 
stroke-linecap:round; stroke-linejoin:round;">
<text x="185000000.000000" y="11650000.000000"
textLength="1388095.000000" font-size="1733333.000000" lengthAdjust="spacingAndGlyphs"
text-anchor="start" opacity="0">4</text>
<g class="stroked-text"><desc>4</desc>
<path d="M185941666 10721428
L185941666 11588095
" />
<path d="M185632142 10226190
L185322619 11154761
L186127380 11154761
" />
</g></g>
<g style="fill:#000000; fill-opacity:0.0; 
stroke:#000000; stroke-width:21200.000000; stroke-opacity:1; 
stroke-linecap:round; stroke-linejoin:round;">
</g>
<g style="fill:#000000; fill-opacity:0.0; 
stroke:#000000; stroke-width:150000.000000; stroke-opacity:1; 
stroke-linecap:round; stroke-linejoin:round;">
<text x="235000000.000000" y="11650000.000000"
textLength="1388095.000000" font-size="1733333.000000" lengthAdjust="spacingAndGlyphs"
text-anchor="start" opacity="0">5</text>
<g class="stroked-text"><desc>5</desc>
<path d="M236003571 10288095
L235384523 10288095
L235322619 10907142
L235384523 10845238
L235508333 10783333
L235817857 10783333
L235941666 10845238
L236003571 10907142
L236065476 11030952
L236065476 11340476
L236003571 11464285
L235941666 11526190
L235817857 11588095
L235508333 11588095
L235384523 11526190
L235322619 11464285
" />
</g></g>
<g style="fill:#000000; fill-opacity:0.0; 
stroke:#000000; stroke-width:21200.000000; stroke-opacity:1; 
stroke-linecap:round; stroke-linejoin:round;">
</g>
<g style="fill:#000000; fill-opacity:0.0; 
stroke:#000000; stroke-width:150000.000000; stroke-opacity:1; 
stroke-linecap:round; stroke-linejoin:round;">
<text x="285000000.000000" y="11650000.000000"
textLength="1388095.000000" font-size="1733333.000000" lengthAdjust="spacingAndGlyphs"
text-anchor="start" opacity="0">6</text>
<g class="stroked-text"><desc>6</desc>
<path d="M285941666 10288095
L285694047 10288095
L285570238 10350000
L285508333 10411904
L285384523 10597619
L285322619 10845238
L285322619 11340476
L285384523 11464285
L285446428 11526190
L285570238 11588095
L285817857 11588095
L285941666 11526190
L286003571 11464285
L286065476 11340476
L286065476 11030952
L286003571 10907142
L285941666 10845238
L285817857 10783333
L285570238 10783333
L285446428 10845238
L285384523 10907142
L285322619 11030952
" />
</g></g>
<g style="fill:#000000; fill-opacity:0.0; 
stroke:#000000; stroke-width:21200.000000; stroke-opacity:1; 
stroke-linecap:round; stroke-linejoin:round;">
</g>
<g style="fill:#000000; fill-opacity:0.0; 
stroke:#000000; stroke-width:150000.000000; stroke-opacity:1; 
stroke-linecap:round; stroke-linejoin:round;">
<path d="M60000000 198007200
L60000000 200007200
" />
</g>
<g style="fill:#000000; fill-opacity:0.0; 
stroke:#000000; stroke-width:21200.000000; stroke-opacity:1; 
stroke-linecap:round; stroke-linejoin:round;">
</g>
<g style="fill:#000000; fill-opacity:0.0; 
stroke:#000000; stroke-width:150000.000000; stroke-opacity:1; 
stroke-linecap:round; stroke-linejoin:round;">
<path d="M110000000 198007200
L110000000 200007200
" />
</g>
<g style="fill:#000000; fill-opacity:0.0; 
stroke:#000000; stroke-width:21200.000000; stroke-opacity:1; 
stroke-linecap:round; stroke-linejoin:round;">
</g>
<g style="fill:#000000; fill-opacity:0.0; 
stroke:#000000; stroke-width:150000.000000; stroke-opacity:1; 
stroke-linecap:round; stroke-linejoin:round;">
<path d="M160000000 198007200
L160000000 200007200
" />
</g>
<g style="fill:#000000; fill-opacity:0.0; 
stroke:#000000; stroke-width:21200.000000; stroke-opacity:1; 
stroke-linecap:round; stroke-linejoin:round;">
</g>
<g style="fill:#000000; fill-opacity:0.0; 
stroke:#000000; stroke-width:150000.000000; stroke-opacity:1; 
stroke-linecap:round; stroke-linejoin:round;">
<path d="M210000000 198007200
L210000000 200007200
" />
</g>
<g style="fill:#000000; fill-opacity:0.0; 
stroke:#000000; stroke-width:21200.000000; stroke-opacity:1; 
stroke-linecap:round; stroke-linejoin:round;">
</g>
<g style="fill:#000000; fill-opacity:0.0; 
stroke:#000000; stroke-width:150000.000000; stroke-opacity:1; 
stroke-linecap:round; stroke-linejoin:round;">
<path d="M260000000 198007200
L260000000 200007200
" />
</g>
<g style="fill:#000000; fill-opacity:0.0; 
stroke:#000000; stroke-width:21200.000000; stroke-opacity:1; 
stroke-linecap:round; stroke-linejoin:round;">
</g>
<g style="fill:#000000; fill-opacity:0.0; 
stroke:#000000; stroke-width:150000.000000; stroke-opacity:1; 
stroke-linecap:round; stroke-linejoin:round;">
<text x="35000000.000000" y="199657200.000000"
textLength="1388095.000000" font-size="1733333.000000" lengthAdjust="spacingAndGlyphs"
text-anchor="start" opacity="0">1</text>
<g class="stroked-text"><desc>1</desc>
<path d="M36065476 199595295
L35322619 199595295
" />
<path d="M35694047 199595295
L35694047 198295295
L35570238 198481009
L35446428 198604819
L35322619 198666723
" />
</g></g>
<g style="fill:#000000; fill-opacity:0.0; 
stroke:#000000; stroke-width:21200.000000; stroke-opacity:1; 
stroke-linecap:round; stroke-linejoin:round;">
</g>
<g style="fill:#000000; fill-opacity:0.0; 
stroke:#000000; stroke-width:150000.000000; stroke-opacity:1; 
stroke-linecap:round; stroke-linejoin:round;">
<text x="85000000.000000" y="199657200.000000"
textLength="1388095.000000" font-size="1733333.000000" lengthAdjust="spacingAndGlyphs"
text-anchor="start" opacity="0">2</text>
<g class="stroked-text"><desc>2</desc>
<path d="M85322619 198419104
L85384523 198357200
L85508333 198295295
L85817857 198295295
L85941666 198357200
L86003571 198419104
L86065476 198542914
L86065476 198666723
L86003571 198852438
L85260714 199595295
L86065476 199595295
" />
</g></g>
<g style="fill:#000000; fill-opacity:0.0; 
stroke:#000000; stroke-width:21200.000000; stroke-opacity:1; 
stroke-linecap:round; stroke-linejoin:round;">
</g>
<g style="fill:#000000; fill-opacity:0.0; 
stroke:#000000; stroke-width:150000.000000; stroke-opacity:1; 
stroke-linecap:round; stroke-linejoin:round;">
<text x="135000000.000000" y="199657200.000000"
textLength="1388095.000000" font-size="1733333.000000" lengthAdjust="spacingAndGlyphs"
text-anchor="start" opacity="0">3</text>
<g class="stroked-text"><desc>3</desc>
<path d="M135260714 198295295
L136065476 198295295
L135632142 198790533
L135817857 198790533
L135941666 198852438
L136003571 198914342
L136065476 199038152
L136065476 199347676
L136003571 199471485
L135941666 199533390
L135817857 199595295
L135446428 199595295
L135322619 199533390
L135260714 199471485
" />
</g></g>
<g style="fill:#000000; fill-opacity:0.0; 
stroke:#000000; stroke-width:21200.000000; stroke-opacity:1; 
stroke-linecap:round; stroke-linejoin:round;">
</g>
<g style="fill:#000000; fill-opacity:0.0; 
stroke:#000000; stroke-width:150000.000000; stroke-opacity:1; 
stroke-linecap:round; stroke-linejoin:round;">
<text x="185000000.000000" y="199657200.000000"
textLength="1388095.000000" font-size="1733333.000000" lengthAdjust="spacingAndGlyphs"
text-anchor="start" opacity="0">4</text>
<g class="stroked-text"><desc>4</desc>
<path d="M185941666 198728628
L185941666 199595295
" />
<path d="M185632142 198233390
L185322619 199161961
L186127380 199161961
" />
</g></g>
<g style="fill:#000000; fill-opacity:0.0; 
stroke:#000000; stroke-width:21200.000000; stroke-opacity:1; 
stroke-linecap:round; stroke-linejoin:round;">
</g>
<g style="fill:#000000; fill-opacity:0.0; 
stroke:#000000; stroke-width:150000.000000; stroke-opacity:1; 
stroke-linecap:round; stroke-linejoin:round;">
<text x="235000000.000000" y="199657200.000000"
textLength="1388095.000000" font-size="1733333.000000" lengthAdjust="spacingAndGlyphs"
text-anchor="start" opacity="0">5</text>
<g class="stroked-text"><desc>5</desc>
<path d="M236003571 198295295
L235384523 198295295
L235322619 198914342
L235384523 198852438
L235508333 198790533
L235817857 198790533
L235941666 198852438
L236003571 198914342
L236065476 199038152
L236065476 199347676
L236003571 199471485
L235941666 199533390
L235817857 199595295
L235508333 199595295
L235384523 199533390
L235322619 199471485
" />
</g></g>
<g style="fill:#000000; fill-opacity:0.0; 
stroke:#000000; stroke-width:21200.000000; stroke-opacity:1; 
stroke-linecap:round; stroke-linejoin:round;">
</g>
<g style="fill:#000000; fill-opacity:0.0; 
stroke:#000000; stroke-width:150000.000000; stroke-opacity:1; 
stroke-linecap:round; stroke-linejoin:round;">
<text x="285000000.000000" y="199657200.000000"
textLength="1388095.000000" font-size="1733333.000000" lengthAdjust="spacingAndGlyphs"
text-anchor="start" opacity="0">6</text>
<g class="stroked-text"><desc>6</desc>
<path d="M285941666 198295295
L285694047 198295295
L285570238 198357200
L285508333 198419104
L285384523 198604819
L285322619 198852438
L285322619 199347676
L285384523 199471485
L285446428 199533390
L285570238 199595295
L285817857 199595295
L285941666 199533390
L286003571 199471485
L286065476 199347676
L286065476 199038152
L286003571 198914342
L285941666 198852438
L285817857 198790533
L285570238 198790533
L285446428 198852438
L285384523 198914342
L285322619 199038152
" />
</g></g>
<g style="fill:#000000; fill-opacity:0.0; 
stroke:#000000; stroke-width:21200.000000; stroke-opacity:1; 
stroke-linecap:round; stroke-linejoin:round;">
</g>
<g style="fill:#000000; fill-opacity:0.0; 
stroke:#000000; stroke-width:150000.000000; stroke-opacity:1; 
stroke-linecap:round; stroke-linejoin:round;">
<path d="M10000000 60000000
L12000000 60000000
" />
</g>
<g style="fill:#000000; fill-opacity:0.0; 
stroke:#000000; stroke-width:21200.000000; stroke-opacity:1; 
stroke-linecap:round; stroke-linejoin:round;">
</g>
<g style="fill:#000000; fill-opacity:0.0; 
stroke:#000000; stroke-width:150000.000000; stroke-opacity:1; 
stroke-linecap:round; stroke-linejoin:round;">
<path d="M10000000 110000000
L12000000 110000000
" />
</g>
<g style="fill:#000000; fill-opacity:0.0; 
stroke:#000000; stroke-width:21200.000000; stroke-opacity:1; 
stroke-linecap:round; stroke-linejoin:round;">
</g>
<g style="fill:#000000; fill-opacity:0.0; 
stroke:#000000; stroke-width:150000.000000; stroke-opacity:1; 
stroke-linecap:round; stroke-linejoin:round;">
<path d="M10000000 160000000
L12000000 160000000
" />
</g>
<g style="fill:#000000; fill-opacity:0.0; 
stroke:#000000; stroke-width:21200.000000; stroke-opacity:1; 
stroke-linecap:round; stroke-linejoin:round;">
</g>
<g style="fill:#000000; fill-opacity:0.0; 
stroke:#000000; stroke-width:150000.000000; stroke-opacity:1; 
stroke-linecap:round; stroke-linejoin:round;">
<text x="11000000.000000" y="35650000.000000"
textLength="1264286.000000" font-size="1733333.000000" lengthAdjust="spacingAndGlyphs"
text-anchor="middle" opacity="0">A</text>
<g class="stroked-text"><desc>A</desc>
<path d="M10690476 35216666
L11309523 35216666
" />
<path d="M10566666 35588095
L11000000 34288095
L11433333 35588095
" />
</g></g>
<g style="fill:#000000; fill-opacity:0.0; 
stroke:#000000; stroke-width:21200.000000; stroke-opacity:1; 
stroke-linecap:round; stroke-linejoin:round;">
</g>
<g style="fill:#000000; fill-opacity:0.0; 
stroke:#000000; stroke-width:150000.000000; stroke-opacity:1; 
stroke-linecap:round; stroke-linejoin:round;">
<text x="11000000.000000" y="85650000.000000"
textLength="1450000.000000" font-size="1733333.000000" lengthAdjust="spacingAndGlyphs"
text-anchor="middle" opacity="0">B</text>
<g class="stroked-text"><desc>B</desc>
<path d="M11092857 84907142
L11278571 84969047
L11340476 85030952
L11402380 85154761
L11402380 85340476
L11340476 85464285
L11278571 85526190
L11154761 85588095
L10659523 85588095
L10659523 84288095
L11092857 84288095
L11216666 84350000
L11278571 84411904
L11340476 84535714
L11340476 84659523
L11278571 84783333
L11216666 84845238
L11092857 84907142
L10659523 84907142
" />
</g></g>
<g style="fill:#000000; fill-opacity:0.0; 
stroke:#000000; stroke-width:21200.000000; stroke-opacity:1; 
stroke-linecap:round; stroke-linejoin:round;">
</g>
<g style="fill:#000000; fill-opacity:0.0; 
stroke:#000000; stroke-width:150000.000000; stroke-opacity:1; 
stroke-linecap:round; stroke-linejoin:round;">
<text x="11000000.000000" y="135650000.000000"
textLength="1450000.000000" font-size="1733333.000000" lengthAdjust="spacingAndGlyphs"
text-anchor="middle" opacity="0">C</text>
<g class="stroked-text"><desc>C</desc>
<path d="M11402380 135464285
L11340476 135526190
L11154761 135588095
L11030952 135588095
L10845238 135526190
L10721428 135402380
L10659523 135278571
L10597619 135030952
L10597619 134845238
L10659523 134597619
L10721428 134473809
L10845238 134350000
L11030952 134288095
L11154761 134288095
L11340476 134350000
L11402380 134411904
" />
</g></g>
<g style="fill:#000000; fill-opacity:0.0; 
stroke:#000000; stroke-width:21200.000000; stroke-opacity:1; 
stroke-linecap:round; stroke-linejoin:round;">
</g>
<g style="fill:#000000; fill-opacity:0.0; 
stroke:#000000; stroke-width:150000.000000; stroke-opacity:1; 
stroke-linecap:round; stroke-linejoin:round;">
<text x="11000000.000000" y="185650000.000000"
textLength="1450000.000000" font-size="1733333.000000" lengthAdjust="spacingAndGlyphs"
text-anchor="middle" opacity="0">D</text>
<g class="stroked-text"><desc>D</desc>
<path d="M10659523 185588095
L10659523 184288095
L10969047 184288095
L11154761 184350000
L11278571 184473809
L11340476 184597619
L11402380 184845238
L11402380 185030952
L11340476 185278571
L11278571 185402380
L11154761 185526190
L10969047 185588095
L10659523 185588095
" />
</g></g>
<g style="fill:#000000; fill-opacity:0.0; 
stroke:#000000; stroke-width:21200.000000; stroke-opacity:1; 
stroke-linecap:round; stroke-linejoin:round;">
</g>
<g style="fill:#000000; fill-opacity:0.0; 
stroke:#000000; stroke-width:150000.000000; stroke-opacity:1; 
stroke-linecap:round; stroke-linejoin:round;">
<path d="M287002200 60000000
L285002200 60000000
" />
</g>
<g style="fill:#000000; fill-opacity:0.0; 
stroke:#000000; stroke-width:21200.000000; stroke-opacity:1; 
stroke-linecap:round; stroke-linejoin:round;">
</g>
<g style="fill:#000000; fill-opacity:0.0; 
stroke:#000000; stroke-width:150000.000000; stroke-opacity:1; 
stroke-linecap:round; stroke-linejoin:round;">
<path d="M287002200 110000000
L285002200 110000000
" />
</g>
<g style="fill:#000000; fill-opacity:0.0; 
stroke:#000000; stroke-width:21200.000000; stroke-opacity:1; 
stroke-linecap:round; stroke-linejoin:round;">
</g>
<g style="fill:#000000; fill-opacity:0.0; 
stroke:#000000; stroke-width:150000.000000; stroke-opacity:1; 
stroke-linecap:round; stroke-linejoin:round;">
<path d="M287002200 160000000
L285002200 160000000
" />
</g>
<g style="fill:#000000; fill-opacity:0.0; 
stroke:#000000; stroke-width:21200.000000; stroke-opacity:1; 
stroke-linecap:round; stroke-linejoin:round;">
</g>
<g style="fill:#000000; fill-opacity:0.0; 
stroke:#000000; stroke-width:150000.000000; stroke-opacity:1; 
stroke-linecap:round; stroke-linejoin:round;">
<text x="286002200.000000" y="35650000.000000"
textLength="1264286.000000" font-size="1733333.000000" lengthAdjust="spacingAndGlyphs"
text-anchor="middle" opacity="0">A</text>
<g class="stroked-text"><desc>A</desc>
<path d="M285692676 35216666
L286311723 35216666
" />
<path d="M285568866 35588095
L286002200 34288095
L286435533 35588095
" />
</g></g>
<g style="fill:#000000; fill-opacity:0.0; 
stroke:#000000; stroke-width:21200.000000; stroke-opacity:1; 
stroke-linecap:round; stroke-linejoin:round;">
</g>
<g style="fill:#000000; fill-opacity:0.0; 
stroke:#000000; stroke-width:150000.000000; stroke-opacity:1; 
stroke-linecap:round; stroke-linejoin:round;">
<text x="286002200.000000" y="85650000.000000"
textLength="1450000.000000" font-size="1733333.000000" lengthAdjust="spacingAndGlyphs"
text-anchor="middle" opacity="0">B</text>
<g class="stroked-text"><desc>B</desc>
<path d="M286095057 84907142
L286280771 84969047
L286342676 85030952
L286404580 85154761
L286404580 85340476
L286342676 85464285
L286280771 85526190
L286156961 85588095
L285661723 85588095
L285661723 84288095
L286095057 84288095
L286218866 84350000
L286280771 84411904
L286342676 84535714
L286342676 84659523
L286280771 84783333
L286218866 84845238
L286095057 84907142
L285661723 84907142
" />
</g></g>
<g style="fill:#000000; fill-opacity:0.0; 
stroke:#000000; stroke-width:21200.000000; stroke-opacity:1; 
stroke-linecap:round; stroke-linejoin:round;">
</g>
<g style="fill:#000000; fill-opacity:0.0; 
stroke:#000000; stroke-width:150000.000000; stroke-opacity:1; 
stroke-linecap:round; stroke-linejoin:round;">
<text x="286002200.000000" y="135650000.000000"
textLength="1450000.000000" font-size="1733333.000000" lengthAdjust="spacingAndGlyphs"
text-anchor="middle" opacity="0">C</text>
<g class="stroked-text"><desc>C</desc>
<path d="M286404580 135464285
L286342676 135526190
L286156961 135588095
L286033152 135588095
L285847438 135526190
L285723628 135402380
L285661723 135278571
L285599819 135030952
L285599819 134845238
L285661723 134597619
L285723628 134473809
L285847438 134350000
L286033152 134288095
L286156961 134288095
L286342676 134350000
L286404580 134411904
" />
</g></g>
<g style="fill:#000000; fill-opacity:0.0; 
stroke:#000000; stroke-width:21200.000000; stroke-opacity:1; 
stroke-linecap:round; stroke-linejoin:round;">
</g>
<g style="fill:#000000; fill-opacity:0.0; 
stroke:#000000; stroke-width:150000.000000; stroke-opacity:1; 
stroke-linecap:round; stroke-linejoin:round;">
<text x="286002200.000000" y="185650000.000000"
textLength="1450000.000000" font-size="1733333.000000" lengthAdjust="spacingAndGlyphs"
text-anchor="middle" opacity="0">D</text>
<g class="stroked-text"><desc>D</desc>
<path d="M285661723 185588095
L285661723 184288095
L285971247 184288095
L286156961 184350000
L286280771 184473809
L286342676 184597619
L286404580 184845238
L286404580 185030952
L286342676 185278571
L286280771 185402380
L286156961 185526190
L285971247 185588095
L285661723 185588095
" />
</g></g>
<g style="fill:#000000; fill-opacity:0.0; 
stroke:#000000; stroke-width:21200.000000; stroke-opacity:1; 
stroke-linecap:round; stroke-linejoin:round;">
</g>
<g style="fill:#000000; fill-opacity:0.0; 
stroke:#000000; stroke-width:150000.000000; stroke-opacity:1; 
stroke-linecap:round; stroke-linejoin:round;">
<text x="200002200.000000" y="193857200.000000"
textLength="7007143.000000" font-size="2000000.000000" lengthAdjust="spacingAndGlyphs"
text-anchor="start" opacity="0">Date: </text>
<g class="stroked-text"><desc>Date: </desc>
<path d="M200434342 193785771
L200434342 192285771
L200791485 192285771
L201005771 192357200
L201148628 192500057
L201220057 192642914
L201291485 192928628
L201291485 193142914
L201220057 193428628
L201148628 193571485
L201005771 193714342
L200791485 193785771
L200434342 193785771
" />
<path d="M202577200 193785771
L202577200 193000057
L202505771 192857200
L202362914 192785771
L202077200 192785771
L201934342 192857200
" />
<path d="M202577200 193714342
L202434342 193785771
L202077200 193785771
L201934342 193714342
L201862914 193571485
L201862914 193428628
L201934342 193285771
L202077200 193214342
L202434342 193214342
L202577200 193142914
" />
<path d="M203077200 192785771
L203648628 192785771
" />
<path d="M203291485 192285771
L203291485 193571485
L203362914 193714342
L203505771 193785771
L203648628 193785771
" />
<path d="M204720057 193714342
L204577200 193785771
L204291485 193785771
L204148628 193714342
L204077200 193571485
L204077200 193000057
L204148628 192857200
L204291485 192785771
L204577200 192785771
L204720057 192857200
L204791485 193000057
L204791485 193142914
L204077200 193285771
" />
<path d="M205434342 193642914
L205505771 193714342
L205434342 193785771
L205362914 193714342
L205434342 193642914
L205434342 193785771
" />
<path d="M205434342 192857200
L205505771 192928628
L205434342 193000057
L205362914 192928628
L205434342 192857200
L205434342 193000057
" />
</g></g>
<g style="fill:#000000; fill-opacity:0.0; 
stroke:#000000; stroke-width:21200.000000; stroke-opacity:1; 
stroke-linecap:round; stroke-linejoin:round;">
</g>
<g style="fill:#000000; fill-opacity:0.0; 
stroke:#000000; stroke-width:150000.000000; stroke-opacity:1; 
stroke-linecap:round; stroke-linejoin:round;">
<path d="M177002200 194507200
L285002200 194507200
" />
</g>
<g style="fill:#000000; fill-opacity:0.0; 
stroke:#000000; stroke-width:21200.000000; stroke-opacity:1; 
stroke-linecap:round; stroke-linejoin:round;">
</g>
<g style="fill:#000000; fill-opacity:0.0; 
stroke:#000000; stroke-width:150000.000000; stroke-opacity:1; 
stroke-linecap:round; stroke-linejoin:round;">
<text x="178002200.000000" y="196657200.000000"
textLength="31078571.000000" font-size="2000000.000000" lengthAdjust="spacingAndGlyphs"
text-anchor="start" opacity="0">KiCad E.D.A.  kicad (6.0.5)</text>
<g class="stroked-text"><desc>KiCad E.D.A.  kicad (6.0.5)</desc>
<path d="M178434342 196585771
L178434342 195085771
" />
<path d="M179291485 196585771
L178648628 195728628
" />
<path d="M179291485 195085771
L178434342 195942914
" />
<path d="M179934342 196585771
L179934342 195585771
" />
<path d="M179934342 195085771
L179862914 195157200
L179934342 195228628
L180005771 195157200
L179934342 195085771
L179934342 195228628
" />
<path d="M181505771 196442914
L181434342 196514342
L181220057 196585771
L181077200 196585771
L180862914 196514342
L180720057 196371485
L180648628 196228628
L180577200 195942914
L180577200 195728628
L180648628 195442914
L180720057 195300057
L180862914 195157200
L181077200 195085771
L181220057 195085771
L181434342 195157200
L181505771 195228628
" />
<path d="M182791485 196585771
L182791485 195800057
L182720057 195657200
L182577200 195585771
L182291485 195585771
L182148628 195657200
" />
<path d="M182791485 196514342
L182648628 196585771
L182291485 196585771
L182148628 196514342
L182077200 196371485
L182077200 196228628
L182148628 196085771
L182291485 196014342
L182648628 196014342
L182791485 195942914
" />
<path d="M184148628 196585771
L184148628 195085771
" />
<path d="M184148628 196514342
L184005771 196585771
L183720057 196585771
L183577200 196514342
L183505771 196442914
L183434342 196300057
L183434342 195871485
L183505771 195728628
L183577200 195657200
L183720057 195585771
L184005771 195585771
L184148628 195657200
" />
<path d="M186005771 195800057
L186505771 195800057
" />
<path d="M186720057 196585771
L186005771 196585771
L186005771 195085771
L186720057 195085771
" />
<path d="M187362914 196442914
L187434342 196514342
L187362914 196585771
L187291485 196514342
L187362914 196442914
L187362914 196585771
" />
<path d="M188077200 196585771
L188077200 195085771
L188434342 195085771
L188648628 195157200
L188791485 195300057
L188862914 195442914
L188934342 195728628
L188934342 195942914
L188862914 196228628
L188791485 196371485
L188648628 196514342
L188434342 196585771
L188077200 196585771
" />
<path d="M189577200 196442914
L189648628 196514342
L189577200 196585771
L189505771 196514342
L189577200 196442914
L189577200 196585771
" />
<path d="M190220057 196157200
L190934342 196157200
" />
<path d="M190077200 196585771
L190577200 195085771
L191077200 196585771
" />
<path d="M191577200 196442914
L191648628 196514342
L191577200 196585771
L191505771 196514342
L191577200 196442914
L191577200 196585771
" />
<path d="M194577200 196585771
L194577200 195085771
" />
<path d="M194720057 196014342
L195148628 196585771
" />
<path d="M195148628 195585771
L194577200 196157200
" />
<path d="M195791485 196585771
L195791485 195585771
" />
<path d="M195791485 195085771
L195720057 195157200
L195791485 195228628
L195862914 195157200
L195791485 195085771
L195791485 195228628
" />
<path d="M197148628 196514342
L197005771 196585771
L196720057 196585771
L196577200 196514342
L196505771 196442914
L196434342 196300057
L196434342 195871485
L196505771 195728628
L196577200 195657200
L196720057 195585771
L197005771 195585771
L197148628 195657200
" />
<path d="M198434342 196585771
L198434342 195800057
L198362914 195657200
L198220057 195585771
L197934342 195585771
L197791485 195657200
" />
<path d="M198434342 196514342
L198291485 196585771
L197934342 196585771
L197791485 196514342
L197720057 196371485
L197720057 196228628
L197791485 196085771
L197934342 196014342
L198291485 196014342
L198434342 195942914
" />
<path d="M199791485 196585771
L199791485 195085771
" />
<path d="M199791485 196514342
L199648628 196585771
L199362914 196585771
L199220057 196514342
L199148628 196442914
L199077200 196300057
L199077200 195871485
L199148628 195728628
L199220057 195657200
L199362914 195585771
L199648628 195585771
L199791485 195657200
" />
<path d="M202077200 197157200
L202005771 197085771
L201862914 196871485
L201791485 196728628
L201720057 196514342
L201648628 196157200
L201648628 195871485
L201720057 195514342
L201791485 195300057
L201862914 195157200
L202005771 194942914
L202077200 194871485
" />
<path d="M203291485 195085771
L203005771 195085771
L202862914 195157200
L202791485 195228628
L202648628 195442914
L202577200 195728628
L202577200 196300057
L202648628 196442914
L202720057 196514342
L202862914 196585771
L203148628 196585771
L203291485 196514342
L203362914 196442914
L203434342 196300057
L203434342 195942914
L203362914 195800057
L203291485 195728628
L203148628 195657200
L202862914 195657200
L202720057 195728628
L202648628 195800057
L202577200 195942914
" />
<path d="M204077200 196442914
L204148628 196514342
L204077200 196585771
L204005771 196514342
L204077200 196442914
L204077200 196585771
" />
<path d="M205077200 195085771
L205220057 195085771
L205362914 195157200
L205434342 195228628
L205505771 195371485
L205577200 195657200
L205577200 196014342
L205505771 196300057
L205434342 196442914
L205362914 196514342
L205220057 196585771
L205077200 196585771
L204934342 196514342
L204862914 196442914
L204791485 196300057
L204720057 196014342
L204720057 195657200
L204791485 195371485
L204862914 195228628
L204934342 195157200
L205077200 195085771
" />
<path d="M206220057 196442914
L206291485 196514342
L206220057 196585771
L206148628 196514342
L206220057 196442914
L206220057 196585771
" />
<path d="M207648628 195085771
L206934342 195085771
L206862914 195800057
L206934342 195728628
L207077200 195657200
L207434342 195657200
L207577200 195728628
L207648628 195800057
L207720057 195942914
L207720057 196300057
L207648628 196442914
L207577200 196514342
L207434342 196585771
L207077200 196585771
L206934342 196514342
L206862914 196442914
" />
<path d="M208220057 197157200
L208291485 197085771
L208434342 196871485
L208505771 196728628
L208577200 196514342
L208648628 196157200
L208648628 195871485
L208577200 195514342
L208505771 195300057
L208434342 195157200
L208291485 194942914
L208220057 194871485
" />
</g></g>
<g style="fill:#000000; fill-opacity:0.0; 
stroke:#000000; stroke-width:21200.000000; stroke-opacity:1; 
stroke-linecap:round; stroke-linejoin:round;">
</g>
<g style="fill:#000000; fill-opacity:0.0; 
stroke:#000000; stroke-width:150000.000000; stroke-opacity:1; 
stroke-linecap:round; stroke-linejoin:round;">
<path d="M177002200 191507200
L285002200 191507200
" />
</g>
<g style="fill:#000000; fill-opacity:0.0; 
stroke:#000000; stroke-width:21200.000000; stroke-opacity:1; 
stroke-linecap:round; stroke-linejoin:round;">
</g>
<g style="fill:#000000; fill-opacity:0.0; 
stroke:#000000; stroke-width:300000.000000; stroke-opacity:1; 
stroke-linecap:round; stroke-linejoin:round;">
<text x="263002200.000000" y="193857200.000000"
textLength="5935714.000000" font-size="2000000.000000" lengthAdjust="spacingAndGlyphs"
text-anchor="start" opacity="0">Rev: </text>
<g class="stroked-text"><desc>Rev: </desc>
<path d="M264411485 193785771
L263911485 193071485
" />
<path d="M263554342 193785771
L263554342 192285771
L264125771 192285771
L264268628 192357200
L264340057 192428628
L264411485 192571485
L264411485 192785771
L264340057 192928628
L264268628 193000057
L264125771 193071485
L263554342 193071485
" />
<path d="M265625771 193714342
L265482914 193785771
L265197200 193785771
L265054342 193714342
L264982914 193571485
L264982914 193000057
L265054342 192857200
L265197200 192785771
L265482914 192785771
L265625771 192857200
L265697200 193000057
L265697200 193142914
L264982914 193285771
" />
<path d="M266197200 192785771
L266554342 193785771
L266911485 192785771
" />
<path d="M267482914 193642914
L267554342 193714342
L267482914 193785771
L267411485 193714342
L267482914 193642914
L267482914 193785771
" />
<path d="M267482914 192857200
L267554342 192928628
L267482914 193000057
L267411485 192928628
L267482914 192857200
L267482914 193000057
" />
</g></g>
<g style="fill:#000000; fill-opacity:0.0; 
stroke:#000000; stroke-width:21200.000000; stroke-opacity:1; 
stroke-linecap:round; stroke-linejoin:round;">
</g>
<g style="fill:#000000; fill-opacity:0.0; 
stroke:#000000; stroke-width:150000.000000; stroke-opacity:1; 
stroke-linecap:round; stroke-linejoin:round;">
<text x="178002200.000000" y="193857200.000000"
textLength="9604286.000000" font-size="2000000.000000" lengthAdjust="spacingAndGlyphs"
text-anchor="start" opacity="0">Size: A4</text>
<g class="stroked-text"><desc>Size: A4</desc>
<path d="M178362914 193714342
L178577200 193785771
L178934342 193785771
L179077200 193714342
L179148628 193642914
L179220057 193500057
L179220057 193357200
L179148628 193214342
L179077200 193142914
L178934342 193071485
L178648628 193000057
L178505771 192928628
L178434342 192857200
L178362914 192714342
L178362914 192571485
L178434342 192428628
L178505771 192357200
L178648628 192285771
L179005771 192285771
L179220057 192357200
" />
<path d="M179862914 193785771
L179862914 192785771
" />
<path d="M179862914 192285771
L179791485 192357200
L179862914 192428628
L179934342 192357200
L179862914 192285771
L179862914 192428628
" />
<path d="M180434342 192785771
L181220057 192785771
L180434342 193785771
L181220057 193785771
" />
<path d="M182362914 193714342
L182220057 193785771
L181934342 193785771
L181791485 193714342
L181720057 193571485
L181720057 193000057
L181791485 192857200
L181934342 192785771
L182220057 192785771
L182362914 192857200
L182434342 193000057
L182434342 193142914
L181720057 193285771
" />
<path d="M183077200 193642914
L183148628 193714342
L183077200 193785771
L183005771 193714342
L183077200 193642914
L183077200 193785771
" />
<path d="M183077200 192857200
L183148628 192928628
L183077200 193000057
L183005771 192928628
L183077200 192857200
L183077200 193000057
" />
<path d="M184862914 193357200
L185577200 193357200
" />
<path d="M184720057 193785771
L185220057 192285771
L185720057 193785771
" />
<path d="M186862914 192785771
L186862914 193785771
" />
<path d="M186505771 192214342
L186148628 193285771
L187077200 193285771
" />
</g></g>
<g style="fill:#000000; fill-opacity:0.0; 
stroke:#000000; stroke-width:21200.000000; stroke-opacity:1; 
stroke-linecap:round; stroke-linejoin:round;">
</g>
<g style="fill:#000000; fill-opacity:0.0; 
stroke:#000000; stroke-width:150000.000000; stroke-opacity:1; 
stroke-linecap:round; stroke-linejoin:round;">
<text x="263002200.000000" y="196657200.000000"
textLength="8507143.000000" font-size="2000000.000000" lengthAdjust="spacingAndGlyphs"
text-anchor="start" opacity="0">Id: 1/1</text>
<g class="stroked-text"><desc>Id: 1/1</desc>
<path d="M263434342 196585771
L263434342 195085771
" />
<path d="M264791485 196585771
L264791485 195085771
" />
<path d="M264791485 196514342
L264648628 196585771
L264362914 196585771
L264220057 196514342
L264148628 196442914
L264077200 196300057
L264077200 195871485
L264148628 195728628
L264220057 195657200
L264362914 195585771
L264648628 195585771
L264791485 195657200
" />
<path d="M265505771 196442914
L265577200 196514342
L265505771 196585771
L265434342 196514342
L265505771 196442914
L265505771 196585771
" />
<path d="M265505771 195657200
L265577200 195728628
L265505771 195800057
L265434342 195728628
L265505771 195657200
L265505771 195800057
" />
<path d="M268148628 196585771
L267291485 196585771
" />
<path d="M267720057 196585771
L267720057 195085771
L267577200 195300057
L267434342 195442914
L267291485 195514342
" />
<path d="M269862914 195014342
L268577200 196942914
" />
<path d="M271148628 196585771
L270291485 196585771
" />
<path d="M270720057 196585771
L270720057 195085771
L270577200 195300057
L270434342 195442914
L270291485 195514342
" />
</g></g>
<g style="fill:#000000; fill-opacity:0.0; 
stroke:#000000; stroke-width:21200.000000; stroke-opacity:1; 
stroke-linecap:round; stroke-linejoin:round;">
</g>
<g style="fill:#000000; fill-opacity:0.0; 
stroke:#000000; stroke-width:150000.000000; stroke-opacity:1; 
stroke-linecap:round; stroke-linejoin:round;">
<path d="M177002200 187507200
L285002200 187507200
" />
</g>
<g style="fill:#000000; fill-opacity:0.0; 
stroke:#000000; stroke-width:21200.000000; stroke-opacity:1; 
stroke-linecap:round; stroke-linejoin:round;">
</g>
<g style="fill:#000000; fill-opacity:0.0; 
stroke:#000000; stroke-width:400000.000000; stroke-opacity:1; 
stroke-linecap:round; stroke-linejoin:round;">
<text x="178002200.000000" y="190307200.000000"
textLength="9409643.000000" font-size="2666666.000000" lengthAdjust="spacingAndGlyphs"
text-anchor="start" opacity="0">Title: </text>
<g class="stroked-text"><desc>Title: </desc>
<path d="M178714580 188211961
L179857438 188211961
" />
<path d="M179036009 190211961
L179286009 188211961
" />
<path d="M180274104 190211961
L180440771 188878628
" />
<path d="M180524104 188211961
L180416961 188307200
L180500295 188402438
L180607438 188307200
L180524104 188211961
L180500295 188402438
" />
<path d="M181107438 188878628
L181869342 188878628
" />
<path d="M181476485 188211961
L181262200 189926247
L181333628 190116723
L181512200 190211961
L181702676 190211961
" />
<path d="M182655057 190211961
L182476485 190116723
L182405057 189926247
L182619342 188211961
" />
<path d="M184190771 190116723
L183988390 190211961
L183607438 190211961
L183428866 190116723
L183357438 189926247
L183452676 189164342
L183571723 188973866
L183774104 188878628
L184155057 188878628
L184333628 188973866
L184405057 189164342
L184381247 189354819
L183405057 189545295
" />
<path d="M185155057 190021485
L185238390 190116723
L185131247 190211961
L185047914 190116723
L185155057 190021485
L185131247 190211961
" />
<path d="M185286009 188973866
L185369342 189069104
L185262200 189164342
L185178866 189069104
L185286009 188973866
L185262200 189164342
" />
</g></g>
<g style="fill:#000000; fill-opacity:0.0; 
stroke:#000000; stroke-width:21200.000000; stroke-opacity:1; 
stroke-linecap:round; stroke-linejoin:round;">
</g>
<g style="fill:#000000; fill-opacity:0.0; 
stroke:#000000; stroke-width:150000.000000; stroke-opacity:1; 
stroke-linecap:round; stroke-linejoin:round;">
<text x="178002200.000000" y="186457200.000000"
textLength="33520000.000000" font-size="2000000.000000" lengthAdjust="spacingAndGlyphs"
text-anchor="start" opacity="0">File: GSM_LCD_RTC.kicad_pcb</text>
<g class="stroked-text"><desc>File: GSM_LCD_RTC.kicad_pcb</desc>
<path d="M178934342 185600057
L178434342 185600057
" />
<path d="M178434342 186385771
L178434342 184885771
L179148628 184885771
" />
<path d="M179720057 186385771
L179720057 185385771
" />
<path d="M179720057 184885771
L179648628 184957200
L179720057 185028628
L179791485 184957200
L179720057 184885771
L179720057 185028628
" />
<path d="M180648628 186385771
L180505771 186314342
L180434342 186171485
L180434342 184885771
" />
<path d="M181791485 186314342
L181648628 186385771
L181362914 186385771
L181220057 186314342
L181148628 186171485
L181148628 185600057
L181220057 185457200
L181362914 185385771
L181648628 185385771
L181791485 185457200
L181862914 185600057
L181862914 185742914
L181148628 185885771
" />
<path d="M182505771 186242914
L182577200 186314342
L182505771 186385771
L182434342 186314342
L182505771 186242914
L182505771 186385771
" />
<path d="M182505771 185457200
L182577200 185528628
L182505771 185600057
L182434342 185528628
L182505771 185457200
L182505771 185600057
" />
<path d="M185148628 184957200
L185005771 184885771
L184791485 184885771
L184577200 184957200
L184434342 185100057
L184362914 185242914
L184291485 185528628
L184291485 185742914
L184362914 186028628
L184434342 186171485
L184577200 186314342
L184791485 186385771
L184934342 186385771
L185148628 186314342
L185220057 186242914
L185220057 185742914
L184934342 185742914
" />
<path d="M185791485 186314342
L186005771 186385771
L186362914 186385771
L186505771 186314342
L186577200 186242914
L186648628 186100057
L186648628 185957200
L186577200 185814342
L186505771 185742914
L186362914 185671485
L186077200 185600057
L185934342 185528628
L185862914 185457200
L185791485 185314342
L185791485 185171485
L185862914 185028628
L185934342 184957200
L186077200 184885771
L186434342 184885771
L186648628 184957200
" />
<path d="M187291485 186385771
L187291485 184885771
L187791485 185957200
L188291485 184885771
L188291485 186385771
" />
<path d="M188648628 186528628
L189791485 186528628
" />
<path d="M190862914 186385771
L190148628 186385771
L190148628 184885771
" />
<path d="M192220057 186242914
L192148628 186314342
L191934342 186385771
L191791485 186385771
L191577200 186314342
L191434342 186171485
L191362914 186028628
L191291485 185742914
L191291485 185528628
L191362914 185242914
L191434342 185100057
L191577200 184957200
L191791485 184885771
L191934342 184885771
L192148628 184957200
L192220057 185028628
" />
<path d="M192862914 186385771
L192862914 184885771
L193220057 184885771
L193434342 184957200
L193577200 185100057
L193648628 185242914
L193720057 185528628
L193720057 185742914
L193648628 186028628
L193577200 186171485
L193434342 186314342
L193220057 186385771
L192862914 186385771
" />
<path d="M194005771 186528628
L195148628 186528628
" />
<path d="M196362914 186385771
L195862914 185671485
" />
<path d="M195505771 186385771
L195505771 184885771
L196077200 184885771
L196220057 184957200
L196291485 185028628
L196362914 185171485
L196362914 185385771
L196291485 185528628
L196220057 185600057
L196077200 185671485
L195505771 185671485
" />
<path d="M196791485 184885771
L197648628 184885771
" />
<path d="M197220057 186385771
L197220057 184885771
" />
<path d="M199005771 186242914
L198934342 186314342
L198720057 186385771
L198577200 186385771
L198362914 186314342
L198220057 186171485
L198148628 186028628
L198077200 185742914
L198077200 185528628
L198148628 185242914
L198220057 185100057
L198362914 184957200
L198577200 184885771
L198720057 184885771
L198934342 184957200
L199005771 185028628
" />
<path d="M199648628 186242914
L199720057 186314342
L199648628 186385771
L199577200 186314342
L199648628 186242914
L199648628 186385771
" />
<path d="M200362914 186385771
L200362914 184885771
" />
<path d="M200505771 185814342
L200934342 186385771
" />
<path d="M200934342 185385771
L200362914 185957200
" />
<path d="M201577200 186385771
L201577200 185385771
" />
<path d="M201577200 184885771
L201505771 184957200
L201577200 185028628
L201648628 184957200
L201577200 184885771
L201577200 185028628
" />
<path d="M202934342 186314342
L202791485 186385771
L202505771 186385771
L202362914 186314342
L202291485 186242914
L202220057 186100057
L202220057 185671485
L202291485 185528628
L202362914 185457200
L202505771 185385771
L202791485 185385771
L202934342 185457200
" />
<path d="M204220057 186385771
L204220057 185600057
L204148628 185457200
L204005771 185385771
L203720057 185385771
L203577200 185457200
" />
<path d="M204220057 186314342
L204077200 186385771
L203720057 186385771
L203577200 186314342
L203505771 186171485
L203505771 186028628
L203577200 185885771
L203720057 185814342
L204077200 185814342
L204220057 185742914
" />
<path d="M205577200 186385771
L205577200 184885771
" />
<path d="M205577200 186314342
L205434342 186385771
L205148628 186385771
L205005771 186314342
L204934342 186242914
L204862914 186100057
L204862914 185671485
L204934342 185528628
L205005771 185457200
L205148628 185385771
L205434342 185385771
L205577200 185457200
" />
<path d="M205934342 186528628
L207077200 186528628
" />
<path d="M207434342 185385771
L207434342 186885771
" />
<path d="M207434342 185457200
L207577200 185385771
L207862914 185385771
L208005771 185457200
L208077200 185528628
L208148628 185671485
L208148628 186100057
L208077200 186242914
L208005771 186314342
L207862914 186385771
L207577200 186385771
L207434342 186314342
" />
<path d="M209434342 186314342
L209291485 186385771
L209005771 186385771
L208862914 186314342
L208791485 186242914
L208720057 186100057
L208720057 185671485
L208791485 185528628
L208862914 185457200
L209005771 185385771
L209291485 185385771
L209434342 185457200
" />
<path d="M210077200 186385771
L210077200 184885771
" />
<path d="M210077200 185457200
L210220057 185385771
L210505771 185385771
L210648628 185457200
L210720057 185528628
L210791485 185671485
L210791485 186100057
L210720057 186242914
L210648628 186314342
L210505771 186385771
L210220057 186385771
L210077200 186314342
" />
</g></g>
<g style="fill:#000000; fill-opacity:0.0; 
stroke:#000000; stroke-width:21200.000000; stroke-opacity:1; 
stroke-linecap:round; stroke-linejoin:round;">
</g>
<g style="fill:#000000; fill-opacity:0.0; 
stroke:#000000; stroke-width:150000.000000; stroke-opacity:1; 
stroke-linecap:round; stroke-linejoin:round;">
<path d="M177002200 181507200
L285002200 181507200
" />
</g>
<g style="fill:#000000; fill-opacity:0.0; 
stroke:#000000; stroke-width:21200.000000; stroke-opacity:1; 
stroke-linecap:round; stroke-linejoin:round;">
</g>
<g style="fill:#000000; fill-opacity:0.0; 
stroke:#000000; stroke-width:150000.000000; stroke-opacity:1; 
stroke-linecap:round; stroke-linejoin:round;">
<text x="178002200.000000" y="183757200.000000"
textLength="8221429.000000" font-size="2000000.000000" lengthAdjust="spacingAndGlyphs"
text-anchor="start" opacity="0">Sheet: </text>
<g class="stroked-text"><desc>Sheet: </desc>
<path d="M178362914 183614342
L178577200 183685771
L178934342 183685771
L179077200 183614342
L179148628 183542914
L179220057 183400057
L179220057 183257200
L179148628 183114342
L179077200 183042914
L178934342 182971485
L178648628 182900057
L178505771 182828628
L178434342 182757200
L178362914 182614342
L178362914 182471485
L178434342 182328628
L178505771 182257200
L178648628 182185771
L179005771 182185771
L179220057 182257200
" />
<path d="M179862914 183685771
L179862914 182185771
" />
<path d="M180505771 183685771
L180505771 182900057
L180434342 182757200
L180291485 182685771
L180077200 182685771
L179934342 182757200
L179862914 182828628
" />
<path d="M181791485 183614342
L181648628 183685771
L181362914 183685771
L181220057 183614342
L181148628 183471485
L181148628 182900057
L181220057 182757200
L181362914 182685771
L181648628 182685771
L181791485 182757200
L181862914 182900057
L181862914 183042914
L181148628 183185771
" />
<path d="M183077200 183614342
L182934342 183685771
L182648628 183685771
L182505771 183614342
L182434342 183471485
L182434342 182900057
L182505771 182757200
L182648628 182685771
L182934342 182685771
L183077200 182757200
L183148628 182900057
L183148628 183042914
L182434342 183185771
" />
<path d="M183577200 182685771
L184148628 182685771
" />
<path d="M183791485 182185771
L183791485 183471485
L183862914 183614342
L184005771 183685771
L184148628 183685771
" />
<path d="M184648628 183542914
L184720057 183614342
L184648628 183685771
L184577200 183614342
L184648628 183542914
L184648628 183685771
" />
<path d="M184648628 182757200
L184720057 182828628
L184648628 182900057
L184577200 182828628
L184648628 182757200
L184648628 182900057
" />
</g></g>
<g style="fill:#000000; fill-opacity:0.0; 
stroke:#000000; stroke-width:21200.000000; stroke-opacity:1; 
stroke-linecap:round; stroke-linejoin:round;">
</g>
<g style="fill:#000000; fill-opacity:0.0; 
stroke:#000000; stroke-width:300000.000000; stroke-opacity:1; 
stroke-linecap:round; stroke-linejoin:round;">
<text x="178002200.000000" y="180757200.000000"
textLength="150000.000000" font-size="2000000.000000" lengthAdjust="spacingAndGlyphs"
text-anchor="start" opacity="0"></text>
<g class="stroked-text"><desc></desc>
</g></g>
<g style="fill:#000000; fill-opacity:0.0; 
stroke:#000000; stroke-width:21200.000000; stroke-opacity:1; 
stroke-linecap:round; stroke-linejoin:round;">
</g>
<g style="fill:#000000; fill-opacity:0.0; 
stroke:#000000; stroke-width:150000.000000; stroke-opacity:1; 
stroke-linecap:round; stroke-linejoin:round;">
<text x="178002200.000000" y="177757200.000000"
textLength="300000.000000" font-size="2000000.000000" lengthAdjust="spacingAndGlyphs"
text-anchor="start" opacity="0"></text>
<g class="stroked-text"><desc></desc>
</g></g>
<g style="fill:#000000; fill-opacity:0.0; 
stroke:#000000; stroke-width:21200.000000; stroke-opacity:1; 
stroke-linecap:round; stroke-linejoin:round;">
</g>
<g style="fill:#000000; fill-opacity:0.0; 
stroke:#000000; stroke-width:150000.000000; stroke-opacity:1; 
stroke-linecap:round; stroke-linejoin:round;">
<text x="178002200.000000" y="174757200.000000"
textLength="150000.000000" font-size="2000000.000000" lengthAdjust="spacingAndGlyphs"
text-anchor="start" opacity="0"></text>
<g class="stroked-text"><desc></desc>
</g></g>
<g style="fill:#000000; fill-opacity:0.0; 
stroke:#000000; stroke-width:21200.000000; stroke-opacity:1; 
stroke-linecap:round; stroke-linejoin:round;">
</g>
<g style="fill:#000000; fill-opacity:0.0; 
stroke:#000000; stroke-width:150000.000000; stroke-opacity:1; 
stroke-linecap:round; stroke-linejoin:round;">
<text x="178002200.000000" y="171757200.000000"
textLength="150000.000000" font-size="2000000.000000" lengthAdjust="spacingAndGlyphs"
text-anchor="start" opacity="0"></text>
<g class="stroked-text"><desc></desc>
</g></g>
<g style="fill:#000000; fill-opacity:0.0; 
stroke:#000000; stroke-width:21200.000000; stroke-opacity:1; 
stroke-linecap:round; stroke-linejoin:round;">
</g>
<g style="fill:#000000; fill-opacity:0.0; 
stroke:#000000; stroke-width:150000.000000; stroke-opacity:1; 
stroke-linecap:round; stroke-linejoin:round;">
<text x="178002200.000000" y="168757200.000000"
textLength="150000.000000" font-size="2000000.000000" lengthAdjust="spacingAndGlyphs"
text-anchor="start" opacity="0"></text>
<g class="stroked-text"><desc></desc>
</g></g>
<g style="fill:#000000; fill-opacity:0.0; 
stroke:#000000; stroke-width:21200.000000; stroke-opacity:1; 
stroke-linecap:round; stroke-linejoin:round;">
</g>
<g style="fill:#000000; fill-opacity:0.0; 
stroke:#000000; stroke-width:150000.000000; stroke-opacity:1; 
stroke-linecap:round; stroke-linejoin:round;">
<path d="M197002200 191507200
L197002200 194507200
" />
</g>
<g style="fill:#000000; fill-opacity:0.0; 
stroke:#000000; stroke-width:21200.000000; stroke-opacity:1; 
stroke-linecap:round; stroke-linejoin:round;">
</g>
<g style="fill:#000000; fill-opacity:0.0; 
stroke:#000000; stroke-width:150000.000000; stroke-opacity:1; 
stroke-linecap:round; stroke-linejoin:round;">
<path d="M261002200 191507200
L261002200 198007200
" />
</g>
<g style="fill:#F2EDA1; fill-opacity:0.0; 
stroke:#F2EDA1; stroke-width:150000.000000; stroke-opacity:1; 
stroke-linecap:round; stroke-linejoin:round;">
</g>
<g style="fill:#F2EDA1; fill-opacity:0.0; 
stroke:#F2EDA1; stroke-width:400000.000000; stroke-opacity:1; 
stroke-linecap:round; stroke-linejoin:round;">
<text x="57000000.000000" y="159000000.000000"
textLength="6245238.000000" font-size="2666666.000000" lengthAdjust="spacingAndGlyphs"
text-anchor="middle" opacity="0">GND</text>
<g class="stroked-text"><desc>GND</desc>
<path d="M55476190 157000000
L55285714 156904761
L55000000 156904761
L54714285 157000000
L54523809 157190476
L54428571 157380952
L54333333 157761904
L54333333 158047619
L54428571 158428571
L54523809 158619047
L54714285 158809523
L55000000 158904761
L55190476 158904761
L55476190 158809523
L55571428 158714285
L55571428 158047619
L55190476 158047619
" />
<path d="M56428571 158904761
L56428571 156904761
L57571428 158904761
L57571428 156904761
" />
<path d="M58523809 158904761
L58523809 156904761
L59000000 156904761
L59285714 157000000
L59476190 157190476
L59571428 157380952
L59666666 157761904
L59666666 158047619
L59571428 158428571
L59476190 158619047
L59285714 158809523
L59000000 158904761
L58523809 158904761
" />
</g><text x="50000000.000000" y="159000000.000000"
textLength="6615238.000000" font-size="2666666.000000" lengthAdjust="spacingAndGlyphs"
text-anchor="middle" opacity="0">+5V</text>
<g class="stroked-text"><desc>+5V</desc>
<path d="M47428571 158142857
L48952380 158142857
" />
<path d="M48190476 158904761
L48190476 157380952
" />
<path d="M50857142 156904761
L49904761 156904761
L49809523 157857142
L49904761 157761904
L50095238 157666666
L50571428 157666666
L50761904 157761904
L50857142 157857142
L50952380 158047619
L50952380 158523809
L50857142 158714285
L50761904 158809523
L50571428 158904761
L50095238 158904761
L49904761 158809523
L49809523 158714285
" />
<path d="M51523809 156904761
L52190476 158904761
L52857142 156904761
" />
</g></g>
<g style="fill:#F2EDA1; fill-opacity:0.0; 
stroke:#F2EDA1; stroke-width:150000.000000; stroke-opacity:1; 
stroke-linecap:round; stroke-linejoin:round;">
<text x="175000000.000000" y="89500000.000000"
textLength="3234286.000000" font-size="1333333.000000" lengthAdjust="spacingAndGlyphs"
text-anchor="middle" opacity="0">TXD</text>
<g class="stroked-text"><desc>TXD</desc>
<path d="M173738095 88452380
L174309523 88452380
" />
<path d="M174023809 89452380
L174023809 88452380
" />
<path d="M174547619 88452380
L175214285 89452380
" />
<path d="M175214285 88452380
L174547619 89452380
" />
<path d="M175595238 89452380
L175595238 88452380
L175833333 88452380
L175976190 88500000
L176071428 88595238
L176119047 88690476
L176166666 88880952
L176166666 89023809
L176119047 89214285
L176071428 89309523
L175976190 89404761
L175833333 89452380
L175595238 89452380
" />
</g><text x="175000000.000000" y="86500000.000000"
textLength="3147381.000000" font-size="1333333.000000" lengthAdjust="spacingAndGlyphs"
text-anchor="middle" opacity="0">RXD</text>
<g class="stroked-text"><desc>RXD</desc>
<path d="M174333333 86452380
L174000000 85976190
" />
<path d="M173761904 86452380
L173761904 85452380
L174142857 85452380
L174238095 85500000
L174285714 85547619
L174333333 85642857
L174333333 85785714
L174285714 85880952
L174238095 85928571
L174142857 85976190
L173761904 85976190
" />
<path d="M174666666 85452380
L175333333 86452380
" />
<path d="M175333333 85452380
L174666666 86452380
" />
<path d="M175714285 86452380
L175714285 85452380
L175952380 85452380
L176095238 85500000
L176190476 85595238
L176238095 85690476
L176285714 85880952
L176285714 86023809
L176238095 86214285
L176190476 86309523
L176095238 86404761
L175952380 86452380
L175714285 86452380
" />
</g><text x="175000000.000000" y="92500000.000000"
textLength="3242619.000000" font-size="1333333.000000" lengthAdjust="spacingAndGlyphs"
text-anchor="middle" opacity="0">GND</text>
<g class="stroked-text"><desc>GND</desc>
<path d="M174238095 91500000
L174142857 91452380
L174000000 91452380
L173857142 91500000
L173761904 91595238
L173714285 91690476
L173666666 91880952
L173666666 92023809
L173714285 92214285
L173761904 92309523
L173857142 92404761
L174000000 92452380
L174095238 92452380
L174238095 92404761
L174285714 92357142
L174285714 92023809
L174095238 92023809
" />
<path d="M174714285 92452380
L174714285 91452380
L175285714 92452380
L175285714 91452380
" />
<path d="M175761904 92452380
L175761904 91452380
L176000000 91452380
L176142857 91500000
L176238095 91595238
L176285714 91690476
L176333333 91880952
L176333333 92023809
L176285714 92214285
L176238095 92309523
L176142857 92404761
L176000000 92452380
L175761904 92452380
" />
</g><text x="211600000.000000" y="73200000.000000"
textLength="2147381.000000" font-size="1333333.000000" lengthAdjust="spacingAndGlyphs"
text-anchor="middle" opacity="0">D7</text>
<g class="stroked-text"><desc>D7</desc>
<path d="M210861904 73152380
L210861904 72152380
L211100000 72152380
L211242857 72200000
L211338095 72295238
L211385714 72390476
L211433333 72580952
L211433333 72723809
L211385714 72914285
L211338095 73009523
L211242857 73104761
L211100000 73152380
L210861904 73152380
" />
<path d="M211766666 72152380
L212433333 72152380
L212004761 73152380
" />
</g><text x="213600000.000000" y="49200000.000000"
textLength="2337857.000000" font-size="1333333.000000" lengthAdjust="spacingAndGlyphs"
text-anchor="middle" opacity="0">RW</text>
<g class="stroked-text"><desc>RW</desc>
<path d="M213338095 49152380
L213004761 48676190
" />
<path d="M212766666 49152380
L212766666 48152380
L213147619 48152380
L213242857 48200000
L213290476 48247619
L213338095 48342857
L213338095 48485714
L213290476 48580952
L213242857 48628571
L213147619 48676190
L212766666 48676190
" />
<path d="M213671428 48152380
L213909523 49152380
L214100000 48438095
L214290476 49152380
L214528571 48152380
" />
</g><text x="211600000.000000" y="64200000.000000"
textLength="2147381.000000" font-size="1333333.000000" lengthAdjust="spacingAndGlyphs"
text-anchor="middle" opacity="0">D4</text>
<g class="stroked-text"><desc>D4</desc>
<path d="M210861904 64152380
L210861904 63152380
L211100000 63152380
L211242857 63200000
L211338095 63295238
L211385714 63390476
L211433333 63580952
L211433333 63723809
L211385714 63914285
L211338095 64009523
L211242857 64104761
L211100000 64152380
L210861904 64152380
" />
<path d="M212290476 63485714
L212290476 64152380
" />
<path d="M212052380 63104761
L211814285 63819047
L212433333 63819047
" />
</g><text x="211600000.000000" y="67200000.000000"
textLength="2147381.000000" font-size="1333333.000000" lengthAdjust="spacingAndGlyphs"
text-anchor="middle" opacity="0">D5</text>
<g class="stroked-text"><desc>D5</desc>
<path d="M210861904 67152380
L210861904 66152380
L211100000 66152380
L211242857 66200000
L211338095 66295238
L211385714 66390476
L211433333 66580952
L211433333 66723809
L211385714 66914285
L211338095 67009523
L211242857 67104761
L211100000 67152380
L210861904 67152380
" />
<path d="M212338095 66152380
L211861904 66152380
L211814285 66628571
L211861904 66580952
L211957142 66533333
L212195238 66533333
L212290476 66580952
L212338095 66628571
L212385714 66723809
L212385714 66961904
L212338095 67057142
L212290476 67104761
L212195238 67152380
L211957142 67152380
L211861904 67104761
L211814285 67057142
" />
</g><text x="212600000.000000" y="52200000.000000"
textLength="1099762.000000" font-size="1333333.000000" lengthAdjust="spacingAndGlyphs"
text-anchor="middle" opacity="0">E</text>
<g class="stroked-text"><desc>E</desc>
<path d="M212385714 51628571
L212719047 51628571
" />
<path d="M212861904 52152380
L212385714 52152380
L212385714 51152380
L212861904 51152380
" />
</g><text x="213600000.000000" y="41200000.000000"
textLength="3052143.000000" font-size="1333333.000000" lengthAdjust="spacingAndGlyphs"
text-anchor="middle" opacity="0">VDD</text>
<g class="stroked-text"><desc>VDD</desc>
<path d="M212266666 40152380
L212600000 41152380
L212933333 40152380
" />
<path d="M213266666 41152380
L213266666 40152380
L213504761 40152380
L213647619 40200000
L213742857 40295238
L213790476 40390476
L213838095 40580952
L213838095 40723809
L213790476 40914285
L213742857 41009523
L213647619 41104761
L213504761 41152380
L213266666 41152380
" />
<path d="M214266666 41152380
L214266666 40152380
L214504761 40152380
L214647619 40200000
L214742857 40295238
L214790476 40390476
L214838095 40580952
L214838095 40723809
L214790476 40914285
L214742857 41009523
L214647619 41104761
L214504761 41152380
L214266666 41152380
" />
</g><text x="213600000.000000" y="46200000.000000"
textLength="2147381.000000" font-size="1333333.000000" lengthAdjust="spacingAndGlyphs"
text-anchor="middle" opacity="0">RS</text>
<g class="stroked-text"><desc>RS</desc>
<path d="M213433333 46152380
L213100000 45676190
" />
<path d="M212861904 46152380
L212861904 45152380
L213242857 45152380
L213338095 45200000
L213385714 45247619
L213433333 45342857
L213433333 45485714
L213385714 45580952
L213338095 45628571
L213242857 45676190
L212861904 45676190
" />
<path d="M213814285 46104761
L213957142 46152380
L214195238 46152380
L214290476 46104761
L214338095 46057142
L214385714 45961904
L214385714 45866666
L214338095 45771428
L214290476 45723809
L214195238 45676190
L214004761 45628571
L213909523 45580952
L213861904 45533333
L213814285 45438095
L213814285 45342857
L213861904 45247619
L213909523 45200000
L214004761 45152380
L214242857 45152380
L214385714 45200000
" />
</g><text x="211600000.000000" y="70200000.000000"
textLength="2147381.000000" font-size="1333333.000000" lengthAdjust="spacingAndGlyphs"
text-anchor="middle" opacity="0">D6</text>
<g class="stroked-text"><desc>D6</desc>
<path d="M210861904 70152380
L210861904 69152380
L211100000 69152380
L211242857 69200000
L211338095 69295238
L211385714 69390476
L211433333 69580952
L211433333 69723809
L211385714 69914285
L211338095 70009523
L211242857 70104761
L211100000 70152380
L210861904 70152380
" />
<path d="M212290476 69152380
L212100000 69152380
L212004761 69200000
L211957142 69247619
L211861904 69390476
L211814285 69580952
L211814285 69961904
L211861904 70057142
L211909523 70104761
L212004761 70152380
L212195238 70152380
L212290476 70104761
L212338095 70057142
L212385714 69961904
L212385714 69723809
L212338095 69628571
L212290476 69580952
L212195238 69533333
L212004761 69533333
L211909523 69580952
L211861904 69628571
L211814285 69723809
" />
</g><text x="236000000.000000" y="21200000.000000"
textLength="4480714.000000" font-size="1333333.000000" lengthAdjust="spacingAndGlyphs"
text-anchor="middle" opacity="0">REF**</text>
<g class="stroked-text"><desc>REF**</desc>
<path d="M234666666 21152380
L234333333 20676190
" />
<path d="M234095238 21152380
L234095238 20152380
L234476190 20152380
L234571428 20200000
L234619047 20247619
L234666666 20342857
L234666666 20485714
L234619047 20580952
L234571428 20628571
L234476190 20676190
L234095238 20676190
" />
<path d="M235095238 20628571
L235428571 20628571
" />
<path d="M235571428 21152380
L235095238 21152380
L235095238 20152380
L235571428 20152380
" />
<path d="M236333333 20628571
L236000000 20628571
" />
<path d="M236000000 21152380
L236000000 20152380
L236476190 20152380
" />
<path d="M237000000 20152380
L237000000 20390476
" />
<path d="M236761904 20295238
L237000000 20390476
L237238095 20295238
" />
<path d="M236857142 20580952
L237000000 20390476
L237142857 20580952
" />
<path d="M237761904 20152380
L237761904 20390476
" />
<path d="M237523809 20295238
L237761904 20390476
L238000000 20295238
" />
<path d="M237619047 20580952
L237761904 20390476
L237904761 20580952
" />
</g><text x="237000000.000000" y="162200000.000000"
textLength="4480714.000000" font-size="1333333.000000" lengthAdjust="spacingAndGlyphs"
text-anchor="middle" opacity="0">REF**</text>
<g class="stroked-text"><desc>REF**</desc>
<path d="M235666666 162152380
L235333333 161676190
" />
<path d="M235095238 162152380
L235095238 161152380
L235476190 161152380
L235571428 161200000
L235619047 161247619
L235666666 161342857
L235666666 161485714
L235619047 161580952
L235571428 161628571
L235476190 161676190
L235095238 161676190
" />
<path d="M236095238 161628571
L236428571 161628571
" />
<path d="M236571428 162152380
L236095238 162152380
L236095238 161152380
L236571428 161152380
" />
<path d="M237333333 161628571
L237000000 161628571
" />
<path d="M237000000 162152380
L237000000 161152380
L237476190 161152380
" />
<path d="M238000000 161152380
L238000000 161390476
" />
<path d="M237761904 161295238
L238000000 161390476
L238238095 161295238
" />
<path d="M237857142 161580952
L238000000 161390476
L238142857 161580952
" />
<path d="M238761904 161152380
L238761904 161390476
" />
<path d="M238523809 161295238
L238761904 161390476
L239000000 161295238
" />
<path d="M238619047 161580952
L238761904 161390476
L238904761 161580952
" />
</g><text x="41000000.000000" y="162200000.000000"
textLength="4480714.000000" font-size="1333333.000000" lengthAdjust="spacingAndGlyphs"
text-anchor="middle" opacity="0">REF**</text>
<g class="stroked-text"><desc>REF**</desc>
<path d="M39666666 162152380
L39333333 161676190
" />
<path d="M39095238 162152380
L39095238 161152380
L39476190 161152380
L39571428 161200000
L39619047 161247619
L39666666 161342857
L39666666 161485714
L39619047 161580952
L39571428 161628571
L39476190 161676190
L39095238 161676190
" />
<path d="M40095238 161628571
L40428571 161628571
" />
<path d="M40571428 162152380
L40095238 162152380
L40095238 161152380
L40571428 161152380
" />
<path d="M41333333 161628571
L41000000 161628571
" />
<path d="M41000000 162152380
L41000000 161152380
L41476190 161152380
" />
<path d="M42000000 161152380
L42000000 161390476
" />
<path d="M41761904 161295238
L42000000 161390476
L42238095 161295238
" />
<path d="M41857142 161580952
L42000000 161390476
L42142857 161580952
" />
<path d="M42761904 161152380
L42761904 161390476
" />
<path d="M42523809 161295238
L42761904 161390476
L43000000 161295238
" />
<path d="M42619047 161580952
L42761904 161390476
L42904761 161580952
" />
</g><text x="40000000.000000" y="21200000.000000"
textLength="4480714.000000" font-size="1333333.000000" lengthAdjust="spacingAndGlyphs"
text-anchor="middle" opacity="0">REF**</text>
<g class="stroked-text"><desc>REF**</desc>
<path d="M38666666 21152380
L38333333 20676190
" />
<path d="M38095238 21152380
L38095238 20152380
L38476190 20152380
L38571428 20200000
L38619047 20247619
L38666666 20342857
L38666666 20485714
L38619047 20580952
L38571428 20628571
L38476190 20676190
L38095238 20676190
" />
<path d="M39095238 20628571
L39428571 20628571
" />
<path d="M39571428 21152380
L39095238 21152380
L39095238 20152380
L39571428 20152380
" />
<path d="M40333333 20628571
L40000000 20628571
" />
<path d="M40000000 21152380
L40000000 20152380
L40476190 20152380
" />
<path d="M41000000 20152380
L41000000 20390476
" />
<path d="M40761904 20295238
L41000000 20390476
L41238095 20295238
" />
<path d="M40857142 20580952
L41000000 20390476
L41142857 20580952
" />
<path d="M41761904 20152380
L41761904 20390476
" />
<path d="M41523809 20295238
L41761904 20390476
L42000000 20295238
" />
<path d="M41619047 20580952
L41761904 20390476
L41904761 20580952
" />
</g><text x="152600000.000000" y="80800000.000000"
textLength="2195000.000000" font-size="1333333.000000" lengthAdjust="spacingAndGlyphs"
text-anchor="middle" opacity="0">U3</text>
<g class="stroked-text"><desc>U3</desc>
<path d="M151838095 79752380
L151838095 80561904
L151885714 80657142
L151933333 80704761
L152028571 80752380
L152219047 80752380
L152314285 80704761
L152361904 80657142
L152409523 80561904
L152409523 79752380
" />
<path d="M152790476 79752380
L153409523 79752380
L153076190 80133333
L153219047 80133333
L153314285 80180952
L153361904 80228571
L153409523 80323809
L153409523 80561904
L153361904 80657142
L153314285 80704761
L153219047 80752380
L152933333 80752380
L152838095 80704761
L152790476 80657142
" />
</g><text x="157210000.000000" y="44170000.000000"
textLength="2195000.000000" font-size="1333333.000000" lengthAdjust="spacingAndGlyphs"
text-anchor="middle" opacity="0">U2</text>
<g class="stroked-text"><desc>U2</desc>
<path d="M156448095 43122380
L156448095 43931904
L156495714 44027142
L156543333 44074761
L156638571 44122380
L156829047 44122380
L156924285 44074761
L156971904 44027142
L157019523 43931904
L157019523 43122380
" />
<path d="M157448095 43217619
L157495714 43170000
L157590952 43122380
L157829047 43122380
L157924285 43170000
L157971904 43217619
L158019523 43312857
L158019523 43408095
L157971904 43550952
L157400476 44122380
L158019523 44122380
" />
</g><g transform="rotate(-90.000000 134520000.000000 68200000.000000)">
<text x="134520000.000000" y="68700000.000000"
textLength="2147381.000000" font-size="1333333.000000" lengthAdjust="spacingAndGlyphs"
text-anchor="middle" opacity="0">R1</text>
</g>
<g class="stroked-text"><desc>R1</desc>
<path d="M134972380 68366666
L134496190 68700000
" />
<path d="M134972380 68938095
L133972380 68938095
L133972380 68557142
L134020000 68461904
L134067619 68414285
L134162857 68366666
L134305714 68366666
L134400952 68414285
L134448571 68461904
L134496190 68557142
L134496190 68938095
" />
<path d="M134972380 67414285
L134972380 67985714
" />
<path d="M134972380 67700000
L133972380 67700000
L134115238 67795238
L134210476 67890476
L134258095 67985714
" />
</g></g>
<g style="fill:#F2EDA1; fill-opacity:0.0; 
stroke:#F2EDA1; stroke-width:300000.000000; stroke-opacity:1; 
stroke-linecap:round; stroke-linejoin:round;">
<g transform="rotate(-90.000000 126600000.000000 68700000.000000)">
<text x="126600000.000000" y="69700000.000000"
textLength="6004524.000000" font-size="2666666.000000" lengthAdjust="spacingAndGlyphs"
text-anchor="middle" opacity="0">10K</text>
</g>
<g class="stroked-text"><desc>10K</desc>
<path d="M127504761 70080952
L127504761 71223809
" />
<path d="M127504761 70652380
L125504761 70652380
L125790476 70842857
L125980952 71033333
L126076190 71223809
" />
<path d="M125504761 68842857
L125504761 68652380
L125600000 68461904
L125695238 68366666
L125885714 68271428
L126266666 68176190
L126742857 68176190
L127123809 68271428
L127314285 68366666
L127409523 68461904
L127504761 68652380
L127504761 68842857
L127409523 69033333
L127314285 69128571
L127123809 69223809
L126742857 69319047
L126266666 69319047
L125885714 69223809
L125695238 69128571
L125600000 69033333
L125504761 68842857
" />
<path d="M127504761 67319047
L125504761 67319047
" />
<path d="M127504761 66176190
L126361904 67033333
" />
<path d="M125504761 66176190
L126647619 67319047
" />
</g></g>
<g style="fill:#F2EDA1; fill-opacity:0.0; 
stroke:#F2EDA1; stroke-width:150000.000000; stroke-opacity:1; 
stroke-linecap:round; stroke-linejoin:round;">
<g transform="rotate(-90.000000 116920000.000000 112860000.000000)">
<text x="116920000.000000" y="113360000.000000"
textLength="2342381.000000" font-size="1333333.000000" lengthAdjust="spacingAndGlyphs"
text-anchor="middle" opacity="0">R4</text>
</g>
<g class="stroked-text"><desc>R4</desc>
<path d="M117372380 113026666
L116896190 113360000
" />
<path d="M117372380 113598095
L116372380 113598095
L116372380 113217142
L116420000 113121904
L116467619 113074285
L116562857 113026666
L116705714 113026666
L116800952 113074285
L116848571 113121904
L116896190 113217142
L116896190 113598095
" />
<path d="M116705714 112169523
L117372380 112169523
" />
<path d="M116324761 112407619
L117039047 112645714
L117039047 112026666
" />
</g></g>
<g style="fill:#F2EDA1; fill-opacity:0.0; 
stroke:#F2EDA1; stroke-width:300000.000000; stroke-opacity:1; 
stroke-linecap:round; stroke-linejoin:round;">
<g transform="rotate(-90.000000 109600000.000000 112860000.000000)">
<text x="109600000.000000" y="113860000.000000"
textLength="6004524.000000" font-size="2666666.000000" lengthAdjust="spacingAndGlyphs"
text-anchor="middle" opacity="0">10K</text>
</g>
<g class="stroked-text"><desc>10K</desc>
<path d="M110504761 114240952
L110504761 115383809
" />
<path d="M110504761 114812380
L108504761 114812380
L108790476 115002857
L108980952 115193333
L109076190 115383809
" />
<path d="M108504761 113002857
L108504761 112812380
L108600000 112621904
L108695238 112526666
L108885714 112431428
L109266666 112336190
L109742857 112336190
L110123809 112431428
L110314285 112526666
L110409523 112621904
L110504761 112812380
L110504761 113002857
L110409523 113193333
L110314285 113288571
L110123809 113383809
L109742857 113479047
L109266666 113479047
L108885714 113383809
L108695238 113288571
L108600000 113193333
L108504761 113002857
" />
<path d="M110504761 111479047
L108504761 111479047
" />
<path d="M110504761 110336190
L109361904 111193333
" />
<path d="M108504761 110336190
L109647619 111479047
" />
</g></g>
<g style="fill:#F2EDA1; fill-opacity:0.0; 
stroke:#F2EDA1; stroke-width:150000.000000; stroke-opacity:1; 
stroke-linecap:round; stroke-linejoin:round;">
<g transform="rotate(-90.000000 119120000.000000 67960000.000000)">
<text x="119120000.000000" y="68460000.000000"
textLength="2342381.000000" font-size="1333333.000000" lengthAdjust="spacingAndGlyphs"
text-anchor="middle" opacity="0">R2</text>
</g>
<g class="stroked-text"><desc>R2</desc>
<path d="M119572380 68126666
L119096190 68460000
" />
<path d="M119572380 68698095
L118572380 68698095
L118572380 68317142
L118620000 68221904
L118667619 68174285
L118762857 68126666
L118905714 68126666
L119000952 68174285
L119048571 68221904
L119096190 68317142
L119096190 68698095
" />
<path d="M118667619 67745714
L118620000 67698095
L118572380 67602857
L118572380 67364761
L118620000 67269523
L118667619 67221904
L118762857 67174285
L118858095 67174285
L119000952 67221904
L119572380 67793333
L119572380 67174285
" />
</g></g>
<g style="fill:#F2EDA1; fill-opacity:0.0; 
stroke:#F2EDA1; stroke-width:300000.000000; stroke-opacity:1; 
stroke-linecap:round; stroke-linejoin:round;">
<g transform="rotate(-90.000000 111600000.000000 68700000.000000)">
<text x="111600000.000000" y="69700000.000000"
textLength="6004524.000000" font-size="2666666.000000" lengthAdjust="spacingAndGlyphs"
text-anchor="middle" opacity="0">10K</text>
</g>
<g class="stroked-text"><desc>10K</desc>
<path d="M112504761 70080952
L112504761 71223809
" />
<path d="M112504761 70652380
L110504761 70652380
L110790476 70842857
L110980952 71033333
L111076190 71223809
" />
<path d="M110504761 68842857
L110504761 68652380
L110600000 68461904
L110695238 68366666
L110885714 68271428
L111266666 68176190
L111742857 68176190
L112123809 68271428
L112314285 68366666
L112409523 68461904
L112504761 68652380
L112504761 68842857
L112409523 69033333
L112314285 69128571
L112123809 69223809
L111742857 69319047
L111266666 69319047
L110885714 69223809
L110695238 69128571
L110600000 69033333
L110504761 68842857
" />
<path d="M112504761 67319047
L110504761 67319047
" />
<path d="M112504761 66176190
L111361904 67033333
" />
<path d="M110504761 66176190
L111647619 67319047
" />
</g></g>
<g style="fill:#F2EDA1; fill-opacity:0.0; 
stroke:#F2EDA1; stroke-width:150000.000000; stroke-opacity:1; 
stroke-linecap:round; stroke-linejoin:round;">
<g transform="rotate(-90.000000 135520000.000000 112460000.000000)">
<text x="135520000.000000" y="112960000.000000"
textLength="2342381.000000" font-size="1333333.000000" lengthAdjust="spacingAndGlyphs"
text-anchor="middle" opacity="0">R3</text>
</g>
<g class="stroked-text"><desc>R3</desc>
<path d="M135972380 112626666
L135496190 112960000
" />
<path d="M135972380 113198095
L134972380 113198095
L134972380 112817142
L135020000 112721904
L135067619 112674285
L135162857 112626666
L135305714 112626666
L135400952 112674285
L135448571 112721904
L135496190 112817142
L135496190 113198095
" />
<path d="M134972380 112293333
L134972380 111674285
L135353333 112007619
L135353333 111864761
L135400952 111769523
L135448571 111721904
L135543809 111674285
L135781904 111674285
L135877142 111721904
L135924761 111769523
L135972380 111864761
L135972380 112150476
L135924761 112245714
L135877142 112293333
" />
</g></g>
<g style="fill:#F2EDA1; fill-opacity:0.0; 
stroke:#F2EDA1; stroke-width:300000.000000; stroke-opacity:1; 
stroke-linecap:round; stroke-linejoin:round;">
<g transform="rotate(-90.000000 128600000.000000 112700000.000000)">
<text x="128600000.000000" y="113700000.000000"
textLength="6004524.000000" font-size="2666666.000000" lengthAdjust="spacingAndGlyphs"
text-anchor="middle" opacity="0">10K</text>
</g>
<g class="stroked-text"><desc>10K</desc>
<path d="M129504761 114080952
L129504761 115223809
" />
<path d="M129504761 114652380
L127504761 114652380
L127790476 114842857
L127980952 115033333
L128076190 115223809
" />
<path d="M127504761 112842857
L127504761 112652380
L127600000 112461904
L127695238 112366666
L127885714 112271428
L128266666 112176190
L128742857 112176190
L129123809 112271428
L129314285 112366666
L129409523 112461904
L129504761 112652380
L129504761 112842857
L129409523 113033333
L129314285 113128571
L129123809 113223809
L128742857 113319047
L128266666 113319047
L127885714 113223809
L127695238 113128571
L127600000 113033333
L127504761 112842857
" />
<path d="M129504761 111319047
L127504761 111319047
" />
<path d="M129504761 110176190
L128361904 111033333
" />
<path d="M127504761 110176190
L128647619 111319047
" />
</g></g>
<g style="fill:#F2EDA1; fill-opacity:0.0; 
stroke:#F2EDA1; stroke-width:150000.000000; stroke-opacity:1; 
stroke-linecap:round; stroke-linejoin:round;">
<text x="179225000.000000" y="84305000.000000"
textLength="2104286.000000" font-size="1333333.000000" lengthAdjust="spacingAndGlyphs"
text-anchor="middle" opacity="0">J3</text>
<g class="stroked-text"><desc>J3</desc>
<path d="M178891666 83257380
L178891666 83971666
L178844047 84114523
L178748809 84209761
L178605952 84257380
L178510714 84257380
" />
<path d="M179272619 83257380
L179891666 83257380
L179558333 83638333
L179701190 83638333
L179796428 83685952
L179844047 83733571
L179891666 83828809
L179891666 84066904
L179844047 84162142
L179796428 84209761
L179701190 84257380
L179415476 84257380
L179320238 84209761
L179272619 84162142
" />
</g><text x="208000000.000000" y="36230000.000000"
textLength="1909286.000000" font-size="1333333.000000" lengthAdjust="spacingAndGlyphs"
text-anchor="middle" opacity="0">J2</text>
<g class="stroked-text"><desc>J2</desc>
<path d="M207666666 35182380
L207666666 35896666
L207619047 36039523
L207523809 36134761
L207380952 36182380
L207285714 36182380
" />
<path d="M208095238 35277619
L208142857 35230000
L208238095 35182380
L208476190 35182380
L208571428 35230000
L208619047 35277619
L208666666 35372857
L208666666 35468095
L208619047 35610952
L208047619 36182380
L208666666 36182380
" />
</g><text x="82295000.000000" y="31645000.000000"
textLength="2195000.000000" font-size="1333333.000000" lengthAdjust="spacingAndGlyphs"
text-anchor="middle" opacity="0">U1</text>
<g class="stroked-text"><desc>U1</desc>
<path d="M81533095 30597380
L81533095 31406904
L81580714 31502142
L81628333 31549761
L81723571 31597380
L81914047 31597380
L82009285 31549761
L82056904 31502142
L82104523 31406904
L82104523 30597380
" />
<path d="M83104523 31597380
L82533095 31597380
" />
<path d="M82818809 31597380
L82818809 30597380
L82723571 30740238
L82628333 30835476
L82533095 30883095
" />
</g></g>
<g style="fill:#F2EDA1; fill-opacity:0.0; 
stroke:#F2EDA1; stroke-width:300000.000000; stroke-opacity:1; 
stroke-linecap:round; stroke-linejoin:round;">
<text x="82295000.000000" y="86700000.000000"
textLength="15242619.000000" font-size="2666666.000000" lengthAdjust="spacingAndGlyphs"
text-anchor="middle" opacity="0">ATmega32</text>
<g class="stroked-text"><desc>ATmega32</desc>
<path d="M75152142 86033333
L76104523 86033333
" />
<path d="M74961666 86604761
L75628333 84604761
L76295000 86604761
" />
<path d="M76675952 84604761
L77818809 84604761
" />
<path d="M77247380 86604761
L77247380 84604761
" />
<path d="M78485476 86604761
L78485476 85271428
" />
<path d="M78485476 85461904
L78580714 85366666
L78771190 85271428
L79056904 85271428
L79247380 85366666
L79342619 85557142
L79342619 86604761
" />
<path d="M79342619 85557142
L79437857 85366666
L79628333 85271428
L79914047 85271428
L80104523 85366666
L80199761 85557142
L80199761 86604761
" />
<path d="M81914047 86509523
L81723571 86604761
L81342619 86604761
L81152142 86509523
L81056904 86319047
L81056904 85557142
L81152142 85366666
L81342619 85271428
L81723571 85271428
L81914047 85366666
L82009285 85557142
L82009285 85747619
L81056904 85938095
" />
<path d="M83723571 85271428
L83723571 86890476
L83628333 87080952
L83533095 87176190
L83342619 87271428
L83056904 87271428
L82866428 87176190
" />
<path d="M83723571 86509523
L83533095 86604761
L83152142 86604761
L82961666 86509523
L82866428 86414285
L82771190 86223809
L82771190 85652380
L82866428 85461904
L82961666 85366666
L83152142 85271428
L83533095 85271428
L83723571 85366666
" />
<path d="M85533095 86604761
L85533095 85557142
L85437857 85366666
L85247380 85271428
L84866428 85271428
L84675952 85366666
" />
<path d="M85533095 86509523
L85342619 86604761
L84866428 86604761
L84675952 86509523
L84580714 86319047
L84580714 86128571
L84675952 85938095
L84866428 85842857
L85342619 85842857
L85533095 85747619
" />
<path d="M86295000 84604761
L87533095 84604761
L86866428 85366666
L87152142 85366666
L87342619 85461904
L87437857 85557142
L87533095 85747619
L87533095 86223809
L87437857 86414285
L87342619 86509523
L87152142 86604761
L86580714 86604761
L86390238 86509523
L86295000 86414285
" />
<path d="M88295000 84795238
L88390238 84700000
L88580714 84604761
L89056904 84604761
L89247380 84700000
L89342619 84795238
L89437857 84985714
L89437857 85176190
L89342619 85461904
L88199761 86604761
L89437857 86604761
" />
</g></g>
<g style="fill:#F2EDA1; fill-opacity:0.0; 
stroke:#F2EDA1; stroke-width:150000.000000; stroke-opacity:1; 
stroke-linecap:round; stroke-linejoin:round;">
<g transform="rotate(-90.000000 50830000.000000 153000000.000000)">
<text x="50830000.000000" y="153500000.000000"
textLength="2104286.000000" font-size="1333333.000000" lengthAdjust="spacingAndGlyphs"
text-anchor="middle" opacity="0">J1</text>
</g>
<g class="stroked-text"><desc>J1</desc>
<path d="M50282380 153333333
L50996666 153333333
L51139523 153380952
L51234761 153476190
L51282380 153619047
L51282380 153714285
" />
<path d="M51282380 152333333
L51282380 152904761
" />
<path d="M51282380 152619047
L50282380 152619047
L50425238 152714285
L50520476 152809523
L50568095 152904761
" />
</g></g>
<g style="fill:#F2EDA1; fill-opacity:0.0; 
stroke:#F2EDA1; stroke-width:120000.000000; stroke-opacity:1; 
stroke-linecap:round; stroke-linejoin:round;">
<path d="M152600000 86260000
L150650000 86260000
" />
<path d="M152600000 81140000
L154550000 81140000
" />
<path d="M152600000 81140000
L149150000 81140000
" />
<path d="M152600000 86260000
L154550000 86260000
" />
<path d="M152130000 44810000
L152130000 47480000
" />
<path d="M152130000 47480000
L152130000 65390000
" />
<path d="M150860000 44810000
L149460000 44810000
" />
<path d="M162290000 44810000
L162290000 65390000
" />
<path d="M164960000 65390000
L164960000 44810000
" />
<path d="M149460000 65390000
L164960000 65390000
" />
<path d="M149460000 47480000
L149460000 65390000
" />
<path d="M149460000 44810000
L149460000 46210000
" />
<path d="M164960000 44810000
L152130000 44810000
" />
<path d="M152130000 47480000
L149460000 47480000
" />
<path d="M133520000 73270000
L133520000 63130000
" />
<path d="M129680000 73270000
L133520000 73270000
" />
<path d="M131600000 59480000
L131600000 63130000
" />
<path d="M133520000 63130000
L129680000 63130000
" />
<path d="M129680000 63130000
L129680000 73270000
" />
<path d="M131600000 76920000
L131600000 73270000
" />
<path d="M112080000 117930000
L115920000 117930000
" />
<path d="M115920000 117930000
L115920000 107790000
" />
<path d="M112080000 107790000
L112080000 117930000
" />
<path d="M114000000 121580000
L114000000 117930000
" />
<path d="M114000000 104140000
L114000000 107790000
" />
<path d="M115920000 107790000
L112080000 107790000
" />
<path d="M116200000 76680000
L116200000 73030000
" />
<path d="M118120000 62890000
L114280000 62890000
" />
<path d="M114280000 73030000
L118120000 73030000
" />
<path d="M118120000 73030000
L118120000 62890000
" />
<path d="M114280000 62890000
L114280000 73030000
" />
<path d="M116200000 59240000
L116200000 62890000
" />
<path d="M134520000 117530000
L134520000 107390000
" />
<path d="M130680000 117530000
L134520000 117530000
" />
<path d="M130680000 107390000
L130680000 117530000
" />
<path d="M132600000 121180000
L132600000 117530000
" />
<path d="M134520000 107390000
L130680000 107390000
" />
<path d="M132600000 103740000
L132600000 107390000
" />
<path d="M179225000 85245000
L180555000 85245000
" />
<path d="M177895000 92985000
L180555000 92985000
" />
<path d="M180555000 87845000
L180555000 92985000
" />
<path d="M180555000 85245000
L180555000 86575000
" />
<path d="M177895000 87845000
L180555000 87845000
" />
<path d="M177895000 87845000
L177895000 92985000
" />
<path d="M206670000 72850000
L209330000 72850000
" />
<path d="M206670000 39770000
L206670000 72850000
" />
<path d="M209330000 37170000
L209330000 38500000
" />
<path d="M209330000 39770000
L209330000 72850000
" />
<path d="M208000000 37170000
L209330000 37170000
" />
<path d="M206670000 39770000
L209330000 39770000
" />
<path d="M81295000 32145000
L75835000 32145000
" />
<path d="M75835000 32145000
L75835000 83065000
" />
<path d="M88755000 83065000
L88755000 32145000
" />
<path d="M75835000 83065000
L88755000 83065000
" />
<path d="M88755000 32145000
L83295000 32145000
" />
<path d="M81295000.000000 32145000.000000 A1000000.000000 1000000.000000 0.0 0 0 83295000.000000 32145000.000000" />
<path d="M52270000 151670000
L53600000 151670000
" />
<path d="M54870000 151670000
L57470000 151670000
" />
<path d="M52270000 153000000
L52270000 151670000
" />
<path d="M54870000 154330000
L57470000 154330000
" />
<path d="M57470000 154330000
L57470000 151670000
" />
<path d="M54870000 154330000
L54870000 151670000
" />
<g >
</g>
<g >
</g>
<g >
</g>
<g >
</g>
<g >
</g>
<g >
</g>
<g >
</g>
<g >
</g>
<g >
</g>
<g >
</g>
<g >
</g>
<g >
</g>
<g >
</g>
<g >
</g>
<g >
</g>
<g >
</g>
<g >
</g>
</g>
<g style="fill:#000000; fill-opacity:0.0; 
stroke:#000000; stroke-width:120000.000000; stroke-opacity:1; 
stroke-linecap:round; stroke-linejoin:round;">
<g >
</g>
<g >
</g>
<g >
</g>
<g >
</g>
<g >
</g>
<g >
</g>
<g >
</g>
<g >
</g>
<g >
</g>
<g >
</g>
<g >
</g>
<g >
</g>
<g >
</g>
<g >
</g>
<g >
</g>
<g >
</g>
<g >
</g>
</g> 
</svg>
